<svg xmlns="http://www.w3.org/2000/svg" width="500" height="335"><path d="M0 0h500v335H0V0Z" fill="#FDFDFD"/><path d="m441.063 110.5 3.197.338c3.251.357 6.495.756 9.74 1.162l3.03.347c2.764.318 5.523.665 8.283 1.028l2.529.307c3.362.492 5.648.842 8.174 3.2 1.495 3.218 1.42 5.625.984 9.118-1.75 2.438-1.75 2.438-4 4h-4l-.113 3.242c-.408 9.97-1.242 19.845-2.387 29.758l-.396 3.453c-.97 8.147-.97 8.147-2.104 11.547l2.695.777c12 4.44 21.805 17.044 27.305 28.223 2.628 6.49 4.676 12.973 5 20l.262 3.191c.765 16.034-4.94 31.034-15.32 43.227-9.268 9.862-23.21 18.782-37.073 19.727-19.945.199-36.75-2.136-51.69-16.723-3.796-4.22-7.102-8.656-10.179-13.422l-1.242-1.914c-7.733-13.607-8.474-30.604-4.918-45.473 5.599-17.437 17.202-29.99 33.16-38.613 8.951-4 8.951-4 14-4l-.121-3.914c.001-7.104.912-14.108 1.775-21.147.285-2.33.561-4.66.836-6.99l.537-4.472.25-2.096c.393-3.189.837-6.289 1.723-9.381l-1.875-.313C427 124 427 124 425 121c-.586-3.852-.357-5.47 1.836-8.727 4.747-3.41 8.608-2.464 14.226-1.773Z" fill="#47A6A1"/><path d="M74 207h2a4742.483 4742.483 0 0 1 6.254 34.777l.573 3.265c.775 4.415 1.55 8.83 2.321 13.245 2.146 12.268 4.31 24.52 6.852 36.713 1.913-.041 1.913-.041 4-1 1.768-2.657 1.768-2.657 3.234-6.004l.858-1.812c.9-1.91 1.779-3.827 2.658-5.747.607-1.296 1.215-2.593 1.824-3.888 1.49-3.176 2.963-6.36 4.426-9.549 21.85-2.842 21.85-2.842 28.345 1.605 4.436 4.756 7.178 10.44 9.655 16.395l1.156 2.611c1.994 4.664 3.372 8.55 3.219 13.702l-.04 2.925c-.443 3.647-1.5 6.552-3.585 9.575-2.728 1.85-4.542 1.71-7.75 1.187-4.265-4.028-5.866-8.639-6.195-14.43l.07-3.445.055-3.492L134 291l-2.598.438-3.464.562-3.41.563c-3.549.44-6.957.51-10.528.437.436 18.191.436 18.191 9.293 33.605 2.96 2.42 6.185 3.956 9.707 5.395l3 1.25 2 .75v1H0v-69h26c2.323-5.807 4.556-11.407 6.5-17.313l.626-1.896C35.17 240.554 37.103 234.283 39 228c3.357 1.678 3.824 5.522 5.004 8.902l.859 2.403c.906 2.542 1.803 5.087 2.7 7.632.901 2.542 1.805 5.082 2.71 7.622a1827.78 1827.78 0 0 1 1.683 4.751c1.363 3.91 1.363 3.91 3.044 7.69 2.025.652 2.025.652 4 1l.264-1.74c1.587-9.562 4.166-18.847 6.673-28.197.886-3.322 1.77-6.644 2.653-9.965l.638-2.396A964.592 964.592 0 0 0 74 207Z" fill="#FDFDFD"/><path d="M147 0c2.842-.388 2.842-.388 6.434-.398l3.904-.012 2.038.019c2.05.016 4.099 0 6.15-.02l3.908.013 3.595.01C176 0 176 0 177.88 1.247c1.398 2.185 1.546 3.616 1.633 6.202l.107 2.569.069 2.67.103 2.705c.082 2.202.152 4.404.209 6.607l3.719.867c3.143.786 5.912 1.721 8.781 3.258L196 28c-3.569 5.408-7.202 10.75-11 16-3.146-.46-6.055-1.018-9.082-2.012C163.548 38.417 149.24 40.034 138 46l-2.727 1.387C123.417 53.924 115.467 64.267 111 77c-3.734 14.749-2.895 29.923 4.75 43.375 8.396 12.625 19.934 22.035 35.055 25.215 3.678.472 7.305.601 11.007.597h2.139c4.53-.05 8.697-.43 13.057-1.652 2.62-.704 5.316-1.089 7.992-1.535l11 15c-3.196 3.196-4.964 3.87-9.188 5.188l-3.292 1.042-2.52.77-.12 1.697c-.19 2.54-.41 5.077-.63 7.615l-.188 2.67-.234 2.569-.19 2.364c-.889 2.904-1.976 3.664-4.638 5.085-2.885.388-2.885.388-6.191.398l-3.612.012-3.76-.035-3.771.035-3.607-.012-3.303-.01C148 187 148 187 146.162 185.615c-2.813-3.91-2.421-9.292-2.725-13.928l-.253-3.8L143 165l-1.906-.516c-4.424-1.252-8.441-2.555-12.469-4.797-3.294-2.029-3.294-2.029-5.547-1.082-3.55 2.383-6.422 5.492-9.445 8.497-3.263 2.352-4.68 2.362-8.633 1.898-2.425-1.665-2.425-1.665-4.742-3.98l-2.54-2.53-2.593-2.678-2.664-2.619c-6.356-6.44-6.356-6.44-6.826-9.823.535-3.471 2.324-5.003 4.74-7.495 2.473-2.583 4.638-4.894 6.625-7.875-.232-1.994-.232-1.994-1-4l-.664-1.923-.746-1.968-.81-2.148-.843-2.211-.853-2.258A3314.08 3314.08 0 0 0 90 112l-1.712-.152c-2.556-.232-5.11-.477-7.663-.723l-2.695-.238-2.578-.254-2.38-.222C71 110 71 110 69 108c-.398-4.276-.329-8.566-.316-12.858.003-2.134-.02-4.266-.045-6.4-.003-1.351-.003-2.703-.002-4.055l-.01-3.738L69 78c2.936-1.957 3.898-2.302 7.23-2.633l2.432-.254 2.525-.238 2.561-.262C85.831 74.401 87.916 74.2 90 74c.793-2.041 1.585-4.083 2.375-6.125l1.336-3.445L95 61l1.43-3.07c.928-3.054.928-3.054-1.133-5.852L92.75 49.25l-2.516-2.86A180.644 180.644 0 0 0 86 42c-.387-2.319-.387-2.319 0-5 2.792-3.846 6.305-7.046 9.688-10.375l2.763-2.848 2.686-2.675 2.46-2.459C106 17 106 17 108.646 17.117c4.125 1.549 6.767 4.804 9.853 7.852 2.768 2.249 3.951 2.984 7.5 3.031a80.175 80.175 0 0 0 7.625-2.938C140.66 22 140.66 22 144 22l.06-1.697c.095-2.539.205-5.077.315-7.616l.094-2.67.117-2.568.095-2.364C145 3 145 3 147 0Z" fill="#47A5A0"/><path d="M340 193h25v139h-19v-93h-2l.074 3.371c-.005 4.961-.594 9.781-1.262 14.691l-.396 2.986c-1.32 9.693-2.907 19.341-4.5 28.992-1.75 10.658-3.259 21.339-4.66 32.048l-.46 3.463-.395 3.052C332 330 332 330 331 332h-9c-1.406-8.235-2.677-16.482-3.875-24.75a1093.895 1093.895 0 0 0-4.188-26.5 672.861 672.861 0 0 1-3.687-24.313l-.387-2.866c-.63-4.903-.999-9.628-.863-14.571h-2v93h-19V194h26c.88 4.312 1.755 8.624 2.625 12.938l.402 1.992a1211.864 1211.864 0 0 1 4.672 24.375l.413 2.292c.664 3.699 1.32 7.399 1.97 11.1l.719 4.041.63 3.595c.297 2.576.297 2.576 1.569 3.667a48262.746 48262.746 0 0 0 3.666-19.336c1.65-8.695 3.294-17.39 4.877-26.098l.689-3.776c.422-2.325.841-4.65 1.257-6.977l.566-3.11.484-2.698C339 194 339 194 340 193Z" fill="#4AA6A2"/><path d="M74 188h4a192.579 192.579 0 0 1 3.48 16.125l.406 2.33c.436 2.514.869 5.03 1.302 7.545l.916 5.285c.64 3.683 1.277 7.366 1.914 11.05a8130.288 8130.288 0 0 0 3.447 19.75l.948 5.403 2.204 12.582.381 2.173c.686 3.916 1.354 7.835 2.002 11.757l1.645-3.324 2.168-4.363 1.08-2.186c.35-.706.702-1.412 1.064-2.139l.968-1.952L103 266l1.281-2.719C106 261 106 261 108.544 260.432l2.999.08 3.252.049 3.392.127 3.428.068c2.796.059 5.59.141 8.385.244l-1.828-3.043c-8.672-14.704-14.125-29.023-10.477-46.238 2.604-7.966 6.608-13.433 13.868-17.656 7.674-3.486 15.899-3.245 23.812-.563 7.318 3.422 11.237 8.736 14.063 16.188 1.934 6.445 1.95 12.637 1.562 19.312-13.633 2.296-13.633 2.296-20 2l-.078-2.633c-.172-9.12-.172-9.12-4.922-16.367-3.669-.501-3.669-.501-7 0-2.805 12.681-.924 21.509 5.837 32.217 2.49 3.819 5.09 7.553 7.73 11.271 10.043 14.315 18.753 27.796 18.995 45.7l.046 2.772c-.124 8.065-2.357 14.631-6.796 21.353-6.919 6.611-12.393 8.148-21.875 8.25l-2.578.044c-6.991-.113-12.053-1.99-17.53-6.326-9.001-10.158-9.418-21.4-8.829-34.281 2.395-.337 4.791-.67 7.188-1 .673-.095 1.347-.19 2.04-.29 3.619-.493 7.12-.823 10.772-.71l.078 2.527c.507 11.07.507 11.07 5.922 20.473 4.147.415 4.147.415 7.813-1.25 3.415-5.033 2.664-11.964 2.187-17.75-.777-3.688-2.27-6.664-4-10l-.85-2.073c-2.375-5.73-4.93-11.315-10.15-14.927-8.396-2.362-17.39-1.693-26-1l-.688 2.328c-1.776 4.971-4.034 9.664-6.312 14.422l-1.367 2.902-1.32 2.77-1.2 2.518C97 294 97 294 95 296c-2.125-.375-2.125-.375-4-1-3.663-18.941-7.068-37.92-10.313-56.938l-.534-3.118a5106.88 5106.88 0 0 1-1.516-8.909l-.457-2.667c-.916-5.445-1.616-10.876-2.18-16.368h-2l-.297 3.164c-.777 6.189-2.412 12.176-3.953 18.211l-.948 3.75A987.086 987.086 0 0 1 61 261l-1.137 3.98L59 268c-2.357-.197-2.357-.197-5-1-1.314-2.094-1.314-2.094-2.281-4.855l-1.106-3.06c-.55-1.62-.55-1.62-1.113-3.272l-1.174-3.293A1231.386 1231.386 0 0 1 45 243c-.797-2.233-1.603-4.463-2.41-6.693A825.232 825.232 0 0 1 40 229c-3.315 7.128-5.387 14.605-7.635 22.123a1628.68 1628.68 0 0 1-1.99 6.565l-.625 2.107c-1.523 4.978-1.523 4.978-3.75 7.205-2.522.227-2.522.227-5.664.195l-3.398-.02-3.563-.05-3.586-.027C6.86 267.074 3.93 267.04 1 267a88.406 88.406 0 0 1-1-5c1-1 1-1 3.133-1.114l2.777.016 2.998.01 3.155.026 3.166.013c2.59.012 5.18.028 7.771.049l.478-2.04c1.992-8.247 4.378-16.335 6.91-24.427.684-2.187 1.356-4.378 2.028-6.568.435-1.397.87-2.795 1.307-4.192l1.18-3.799C36 217 36 217 38 215c1.986.065 1.986.065 4 1 1.217 2.142 1.217 2.142 2.219 4.96l1.136 3.122 1.145 3.293 1.145 3.176a884.11 884.11 0 0 1 2.246 6.32c1.41 3.978 2.896 7.927 4.392 11.874C55 251 55 251 55 254h2l.368-3.442c.577-4.594 1.604-9.008 2.741-13.492.21-.836.418-1.672.633-2.534.441-1.764.885-3.528 1.331-5.292.667-2.637 1.325-5.277 1.982-7.918 2.1-8.388 4.289-16.743 6.71-25.045l.636-2.19c1.474-4.962 1.474-4.962 2.599-6.087Z" fill="#4AA7A2"/><path d="M391 208c4 4.75 4 4.75 4 7 3.252 1.676 6.568 3.139 9.938 4.563l3.09 1.316c17.536 6.614 36.98.978 53.495-5.64 4.11-1.465 8.235-2.55 12.477-3.552.718-.17 1.437-.342 2.177-.519 3.666-.83 7.063-1.366 10.823-1.168a924118516.175 924118516.175 0 0 1 3.027 8.203c4.623 13.292 2.088 27.19-3.527 39.734-7.597 14.357-19.689 23.583-35.104 28.48-4.186 1.018-8.29 1.114-12.584 1.083l-2.776-.015c-11.807-.3-21.726-4.178-31.036-11.485l-2.078-1.55C392.313 265.966 385.749 252.353 384 239c-.845-9.514.173-21.301 5.637-29.438L391 208Z" fill="#4FC6C2"/><path d="M200 43h23v40h31V43h23v99h-23v-39h-31v39h-23V43Z" fill="#4AA7A2"/><path d="M234 194h47v21h-26v36h19v22h-19v38h26v21h-47V194Z" fill="#4AA6A2"/><path d="M367 49c1.002 2.333 1.162 3.498.38 5.923l-1.032 1.968-1.104 2.148-1.182 2.211-1.17 2.258A651.101 651.101 0 0 1 360 69c-3.158-.563-5.921-1.335-8.875-2.563-9.803-3.278-20.26-2.478-29.527 1.95-5.702 3.541-10.125 8.686-12.157 15.152-1.51 8.418-1.972 17.224 2.957 24.535 6.42 7.718 13.49 11.915 23.516 13.34 7.224.362 12.873-1.473 19.469-4.32C358 116 358 116 360 116l9 19c-15.979 8.377-31.29 12.326-49.234 7.031-13.486-5.028-26.181-15.027-32.27-28.312-4.905-12.408-7.116-25.492-1.758-38.164 7.393-14.969 17.1-24.978 32.7-31.555 15.29-5.024 34.828-3.551 48.562 5Z" fill="#48A6A1"/><path d="M172 194h58v20h-19v118h-20V214h-19v-20ZM374 44h22v98h-22V44Z" fill="#46A5A0"/><path d="M457.625 193.938C461 195 461 195 462.938 196.688c1.423 3.098 1.614 4.934 1.062 8.312-2.063 2.938-2.063 2.938-5 5-3.852.066-5.998-.128-8.938-2.688-1.423-3.098-1.614-4.934-1.062-8.312 2.698-3.843 3.866-4.98 8.625-5.063Z" fill="#4FC5C1"/><path d="M462 135h3c-.598 10.07-1.663 20.006-3 30l-3 1c.31-3.667.623-7.333.938-11l.263-3.121c.486-5.646 1.05-11.262 1.799-16.879Z" fill="#4DBFBB"/><path d="M426.938 186.813C430 187 430 187 432 189c-.556 4.556-.556 4.556-2 6-2 .04-4 .043-6 0a176.79 176.79 0 0 1-1-7c1-1 1-1 3.938-1.188Z" fill="#4FC5C1"/></svg>